# xmcd
#
# Track frame offsets:
#	150
#	16175
#	33463
#	52650
#	70642
#	88050
#	104882
#	122137
#	136171
#	151142
#	166867
#	181060
#
# Disc length: 2697 seconds
#
# Revision: 1
# Processed by: cddbd v1.4b41PL2 Copyright (c) Steve Scherf et al.
# Submitted via: OrangeCD 4.0
#
DISCID=8e0a870c
DTITLE=Shania Twain - Beginnings
DYEAR=1900
DGENRE=
TTITLE0=Sending With Love
TTITLE1=(Don't Give Me That) Once Over
TTITLE2=I Lost My Heart When I Found You
TTITLE3=Hate To Love
TTITLE4=Two Hearts, One Love
TTITLE5=LUV Eyes
TTITLE6=The Rythm Make Me Do It
TTITLE7=Bite My Lip
TTITLE8=Wild and Wicked
TTITLE9=Half Breed
TTITLE10=For The Love Of Him
TTITLE11=For The Love Of Him (Dance Mix)
EXTD=
EXTT0=
EXTT1=
EXTT2=
EXTT3=
EXTT4=
EXTT5=
EXTT6=
EXTT7=
EXTT8=
EXTT9=
EXTT10=
EXTT11=
PLAYORDER=
